<svg width="512" height="512" viewBox="0 0 512 512" fill="none" xmlns="http://www.w3.org/2000/svg">
<path d="M199.239 135C199.239 83.877 232.601 40.554 278.739 25.593C267.557 21.968 255.629 20 243.239 20C179.726 20 128.239 71.487 128.239 135C128.239 198.513 179.726 250 243.239 250C255.629 250 267.557 248.032 278.739 244.407C232.601 229.446 199.239 186.123 199.239 135V135Z" fill="#C4C4C4"/>
<path d="M433 512C421.954 512 413 503.046 413 492C413 413.701 349.299 350 271 350H241C162.701 350 99 413.701 99 492C99 503.046 90.046 512 79 512C67.954 512 59 503.046 59 492C59 391.645 140.645 310 241 310H271C371.355 310 453 391.645 453 492C453 503.046 444.046 512 433 512ZM389 135C389 60.561 328.439 0 254 0C179.561 0 119 60.561 119 135C119 209.439 179.561 270 254 270C328.439 270 389 209.439 389 135ZM349 135C349 187.383 306.383 230 254 230C201.617 230 159 187.383 159 135C159 82.617 201.617 40 254 40C306.383 40 349 82.617 349 135Z" fill="black"/>
<path d="M255 512C251.532 512 248.065 511.099 244.963 509.299L163.963 462.299C159.304 459.596 155.933 455.128 154.611 449.906C153.29 444.685 154.131 439.151 156.943 434.557L186.943 385.557C192.71 376.137 205.023 373.176 214.443 378.943C223.863 384.711 226.824 397.023 221.056 406.443L201.749 437.979L255.12 468.948L309.869 437.946L290.098 406.694C284.193 397.36 286.972 385.005 296.307 379.1C305.64 373.194 317.996 375.975 323.901 385.308L354.901 434.308C357.828 438.934 358.73 444.557 357.399 449.866C356.067 455.176 352.618 459.707 347.854 462.404L264.854 509.404C261.797 511.135 258.397 512 255 512Z" fill="#DA2797"/>
</svg>
