<svg width="512" height="512" viewBox="0 0 512 512" fill="none" xmlns="http://www.w3.org/2000/svg">
<path d="M277.024 468.589C277.024 384 241 340 241 340V255.644C241 226.042 259.738 200.817 286 191.182C278.629 188.478 270.665 187 262.356 187H249.644C211.733 187 181 217.733 181 255.644V340C181 340 217.024 384 217.024 468.589C217.024 481.878 229.237 492 242.526 492H269.474C275.568 492 281.432 489.867 286 486.28C280.608 482.046 277.024 475.784 277.024 468.589Z" fill="#C4C4C4"/>
<path d="M269.474 512H242.526C217.436 512 197.024 492.525 197.024 468.589C197.024 393.25 165.84 353.055 165.525 352.67C162.599 349.096 161 344.619 161 340V255.645C161 206.766 200.766 167 249.644 167H262.356C311.234 167 351 206.766 351 255.644V340C351 344.688 349.524 349.021 346.521 352.615C345.252 354.255 314.976 394.315 314.976 468.589C314.976 492.525 294.564 512 269.474 512ZM201 333.598C211.619 349.524 237.023 395.291 237.023 468.589C237.023 469.905 239.541 472 242.525 472H269.473C272.457 472 274.975 469.905 274.975 468.589C274.975 395.291 300.38 349.524 310.999 333.598V255.644C311 228.821 289.178 207 262.356 207H249.644C222.822 207 201 228.821 201 255.644V333.598ZM331 340H331.01H331ZM255 136C217.505 136 187 105.495 187 68C187 30.505 217.505 0 255 0C292.495 0 323 30.505 323 68C323 105.495 292.495 136 255 136ZM255 40C239.561 40 227 52.561 227 68C227 83.439 239.561 96 255 96C270.439 96 283 83.439 283 68C283 52.561 270.439 40 255 40Z" fill="black"/>
<path d="M434 349C428.872 349 423.746 347.041 419.839 343.123C412.039 335.303 412.056 322.639 419.877 314.839L466.166 268.673C469.93 264.921 472 259.942 472 254.649C472 249.376 469.945 244.413 466.212 240.669L419.986 195.271C412.106 187.531 411.991 174.869 419.731 166.988C427.471 159.107 440.133 158.994 448.014 166.732L494.303 212.193C494.339 212.228 494.374 212.263 494.409 212.298C505.753 223.608 512 238.649 511.999 254.65C511.999 270.651 505.751 285.691 494.408 297L448.122 343.163C444.22 347.054 439.109 349 434 349V349ZM92.161 343.123C99.961 335.303 99.944 322.639 92.123 314.839L45.831 268.67C42.071 264.921 40 259.941 40 254.649C40 249.376 42.055 244.413 45.788 240.669L92.014 195.271C99.894 187.531 100.009 174.869 92.269 166.988C84.529 159.106 71.867 158.994 63.986 166.732L17.697 212.193C17.661 212.228 17.626 212.263 17.591 212.298C6.247 223.606 0 238.647 0 254.648C0 270.649 6.248 285.689 17.588 296.995L63.877 343.161C67.78 347.055 72.89 349 78 349C83.127 349 88.254 347.04 92.161 343.123V343.123Z" fill="#DA2797"/>
</svg>
