<svg width="512" height="512" viewBox="0 0 512 512" fill="none" xmlns="http://www.w3.org/2000/svg">
<path d="M170.239 135C170.239 83.877 203.601 40.554 249.739 25.593C238.557 21.968 226.629 20 214.239 20C150.726 20 99.239 71.487 99.239 135C99.239 198.513 150.726 250 214.239 250C226.629 250 238.557 248.032 249.739 244.407C203.601 229.446 170.239 186.123 170.239 135Z" fill="#C4C4C4"/>
<path d="M50 512C38.954 512 30 503.046 30 492C30 391.645 111.645 310 212 310H242C264.034 310 285.58 313.9 306.038 321.591C316.377 325.478 321.607 337.011 317.721 347.35C313.833 357.689 302.297 362.92 291.962 359.033C276.02 353.039 259.21 350 242 350H212C133.701 350 70 413.701 70 492C70 503.046 61.046 512 50 512ZM360 135C360 60.561 299.439 0 225 0C150.561 0 90 60.561 90 135C90 209.439 150.561 270 225 270C299.439 270 360 209.439 360 135ZM320 135C320 187.383 277.383 230 225 230C172.617 230 130 187.383 130 135C130 82.617 172.617 40 225 40C277.383 40 320 82.617 320 135Z" fill="black"/>
<path d="M334.148 399.481H493.342V428.519H334.148V399.481Z" fill="#DA2797"/>
<path d="M399.481 492.85V431.422H428.519V492.85H399.481Z" fill="#DA2797"/>
<path d="M450.296 414C450.296 434.046 434.046 450.296 414 450.296C393.954 450.296 377.704 434.046 377.704 414C377.704 393.954 393.954 377.704 414 377.704C434.046 377.704 450.296 393.954 450.296 414Z" fill="#DA2797"/>
<path fill-rule="evenodd" clip-rule="evenodd" d="M414 482.963C452.087 482.963 482.963 452.087 482.963 414C482.963 375.913 452.087 345.037 414 345.037C375.913 345.037 345.037 375.913 345.037 414C345.037 452.087 375.913 482.963 414 482.963ZM414 512C468.124 512 512 468.124 512 414C512 359.876 468.124 316 414 316C359.876 316 316 359.876 316 414C316 468.124 359.876 512 414 512Z" fill="#DA2797"/>
</svg>
