<svg width="512" height="512" viewBox="0 0 512 512" fill="none" xmlns="http://www.w3.org/2000/svg">
<path d="M80 392V282.553C80 270.901 85.229 261.211 93.017 254.82L77.494 243.187C71.407 238.657 64.664 236.401 58 236.05C38.664 235.032 20 250.049 20 272.066V392C20 447.228 64.771 492 120 492H180C124.771 492 80 447.228 80 392Z" fill="#C4C4C4"/>
<path d="M392 512H120C53.832 512 0 458.168 0 392V272.065C0 256.517 6.142 242.127 17.295 231.546C28.509 220.907 43.747 215.268 59.052 216.076C69.976 216.651 80.482 220.478 89.436 227.141L207.35 315.507C207.395 315.541 207.44 315.575 207.485 315.609C236.049 337.396 275.952 337.396 304.516 315.609C304.561 315.575 304.606 315.541 304.651 315.507L422.512 227.181C431.519 220.478 442.025 216.651 452.949 216.076C468.253 215.259 483.492 220.907 494.706 231.546C505.858 242.127 512 256.517 512 272.065V392C512 458.168 458.168 512 392 512ZM56.163 256C52.059 256 47.871 257.674 44.825 260.564C42.624 262.652 40 266.342 40 272.064V392C40 436.112 75.888 472 120 472H392C436.112 472 472 436.112 472 392V272.065C472 266.343 469.376 262.653 467.175 260.565C463.935 257.491 459.426 255.8 455.052 256.021C451.987 256.183 449.091 257.262 446.448 259.23L328.707 347.466C285.887 380.074 226.115 380.074 183.295 347.466L65.5 259.19C62.909 257.262 60.014 256.182 56.948 256.021C56.688 256.007 56.425 256 56.163 256V256ZM464 157V120C464 53.832 410.168 0 344 0H170C103.832 0 50 53.832 50 120V157C50 168.046 58.954 177 70 177C81.046 177 90 168.046 90 157V120C90 75.888 125.888 40 170 40H344C388.112 40 424 75.888 424 120V157C424 168.046 432.954 177 444 177C455.046 177 464 168.046 464 157Z" fill="black"/>
<path d="M310 213C310 184.962 286.5 163 256.5 163C246.809 163 239.5 158.701 239.5 153C239.5 147.486 243.986 143 249.5 143C256.604 143 265.245 143.804 280.251 149.64C290.542 153.643 302.136 148.544 306.14 138.249C310.144 127.954 305.044 116.363 294.749 112.36C288.34 109.868 282.639 108.035 277.5 106.68V103C277.5 91.954 268.546 83 257.5 83C246.454 83 237.5 91.954 237.5 103V104.466C215.708 109.856 199.5 129.567 199.5 153C199.5 181.505 224.005 203 256.5 203C264.07 203 270 207.393 270 213C270 218.514 265.514 223 260 223C255.82 223 241.543 221.637 225.888 215.415C215.626 211.336 203.995 216.349 199.914 226.613C195.834 236.878 200.848 248.506 211.112 252.586C220.265 256.224 229.348 258.74 237.5 260.393V263C237.5 274.046 246.454 283 257.5 283C268.546 283 277.5 274.046 277.5 263V259.832C296.463 252.723 310 234.415 310 213V213Z" fill="#DA2797"/>
</svg>
