<svg width="512" height="512" viewBox="0 0 512 512" fill="none" xmlns="http://www.w3.org/2000/svg">
<path d="M505.803 381.875C492.764 356.825 463.08 345.936 435.447 356.421C416.177 363.735 392.615 372.675 366.969 379.747C369.335 368.359 368.155 356.3 363.425 344.835C356.529 328.119 342.356 315.682 324.541 310.713C315.435 308.173 305.549 307.601 295.156 309.014C226.628 318.335 185.831 295.163 149.833 274.72C125.636 260.979 102.783 248 76.029 248C42.029 248 14.055 258.913 14.055 258.913C3.513 262.212 -2.357 273.432 0.942001 283.974C4.241 294.515 15.459 300.389 26.003 297.087C26.003 297.087 50.029 288 76.029 288C92.217 288 108.925 297.489 130.08 309.502C161.756 327.49 203.346 351.113 265.168 351.111C276.284 351.111 288.063 350.346 300.546 348.649C305.436 347.984 310.019 348.189 313.795 349.242C318.011 350.418 323.628 353.255 326.449 360.09C328.637 365.392 328.746 370.353 326.773 374.836C324.354 380.335 318.84 384.892 311.251 387.667C300.296 391.672 285.757 393.806 268.029 394C249.016 394.14 229.439 391.947 213.112 387.657C202.429 384.849 191.492 391.235 188.685 401.918C185.878 412.601 192.263 423.537 202.946 426.344C222.065 431.368 245.029 434.001 267.029 434.001C343.027 433.66 408.17 409.56 449.639 393.819C456.591 391.182 465.977 391.996 470.168 400.051C473.92 407.259 471.326 416.551 464.179 420.369C413.984 447.185 355.735 472 270.141 472C193.942 472 123.754 442.595 78.292 417.928C43.271 398.926 17.679 404.928 14.877 405.675L14.889 405.72C6.338 407.991 0.0280011 415.763 0.0280011 425.029C0.0280011 436.075 8.982 445.029 20.028 445.029C21.687 445.029 23.291 444.805 24.832 444.424C26.622 444.118 39.564 442.424 59.215 453.086C108.749 479.962 185.55 512 270.141 512C377.548 512 448.79 473.94 483.027 455.65C509.421 441.549 519.645 408.465 505.803 381.875V381.875Z" fill="black"/>
<path d="M267.029 434C266.699 434.004 267.769 434 267.029 434V434Z" fill="#1428BF"/>
<path d="M363.334 96.9192L348.345 105.912C351.282 115.09 352.883 124.861 352.883 135.001C352.883 145.14 351.282 154.911 348.345 164.089L363.333 173.082C373.989 179.475 377.444 193.296 371.051 203.951C366.832 210.982 359.379 214.878 351.735 214.878C347.796 214.878 343.805 213.843 340.18 211.668L324.914 202.509C312.678 214.772 297.132 223.718 279.755 227.926V247.5C279.755 259.927 269.682 270 257.255 270C244.828 270 234.755 259.927 234.755 247.5V227.926C216.982 223.622 201.139 214.346 188.779 201.65L172.081 211.668C168.458 213.843 164.466 214.878 160.526 214.878C152.882 214.878 145.43 210.982 141.211 203.951C134.818 193.296 138.274 179.474 148.929 173.082L165.807 162.955C163.097 154.108 161.629 144.723 161.629 135.001C161.629 125.278 163.097 115.893 165.807 107.046L148.927 96.9192C138.271 90.5258 134.817 76.7051 141.21 66.049C147.604 55.393 161.424 51.9381 172.08 58.3315L188.777 68.3497C201.138 55.6529 216.981 46.3783 234.754 42.0741V22.5001C234.754 10.0733 244.827 0 257.254 0C269.681 0 279.754 10.0733 279.754 22.5001V42.0741C297.131 46.2816 312.676 55.2276 324.913 67.4913L340.178 58.3315C350.835 51.9381 364.655 55.3941 371.048 66.049C377.445 76.7051 373.989 90.5258 363.334 96.9192ZM307.883 135.001C307.883 107.086 285.172 84.3754 257.258 84.3754C229.343 84.3754 206.632 107.086 206.632 135.001C206.632 162.915 229.343 185.626 257.258 185.626C285.172 185.626 307.883 162.915 307.883 135.001Z" fill="#DA2797"/>
</svg>
